<?xml version="1.0" encoding="utf-8"?>
<svg version="1.1" id="Layer_1" xmlns="http://www.w3.org/2000/svg" x="0px" y="0px"
     viewBox="0 0 512 512" enable-background="new 0 0 512 512" xml:space="preserve">
<rect fill="#14213D" width="512" height="512"/>
<path fill="#FCA311" d="M391.5,147.6c0-14.9-11.9-27.1-26.6-27.1H147.1c-14.6,0-26.6,12.2-26.6,27.1v216.8
	c0,14.9,11.9,27.1,26.6,27.1h217.8c14.6,0,26.6-12.2,26.6-27.1L391.5,147.6L391.5,147.6z M380,364.4c0,8.6-6.7,15.6-15,15.6H147.1
	c-8.3,0-15-7-15-15.6V147.6c0-8.6,6.7-15.6,15-15.6h217.8c8.3,0,15,7,15,15.6L380,364.4L380,364.4z"/>
<rect x="173.9" y="172.7" transform="matrix(0.6225 -0.7827 0.7827 0.6225 -71.9981 208.088)" fill="#FCA311" width="11.5" height="12"/>
<rect x="224.8" y="172.7" transform="matrix(0.6225 -0.7827 0.7827 0.6225 -52.7923 247.9319)" fill="#FCA311" width="11.5" height="12"/>
<rect x="275.7" y="172.7" transform="matrix(0.6225 -0.7827 0.7827 0.6225 -33.5613 287.7325)" fill="#FCA311" width="11.5" height="12"/>
<rect x="326.7" y="172.7" transform="matrix(0.6225 -0.7827 0.7827 0.6225 -14.2936 327.6795)" fill="#FCA311" width="11.5" height="12"/>
<rect x="173.8" y="224.3" transform="matrix(0.6225 -0.7827 0.7827 0.6225 -112.4149 227.4777)" fill="#FCA311" width="11.5" height="12"/>
<rect x="224.8" y="224.2" transform="matrix(0.6225 -0.7827 0.7827 0.6225 -93.1244 267.3408)" fill="#FCA311" width="11.5" height="12"/>
<rect x="275.7" y="224.2" transform="matrix(0.6225 -0.7827 0.7827 0.6225 -73.9125 307.2262)" fill="#FCA311" width="11.5" height="12"/>
<rect x="326.6" y="224.2" transform="matrix(0.6225 -0.7827 0.7827 0.6225 -54.7104 347.0692)" fill="#FCA311" width="11.5" height="12"/>
<rect x="173.9" y="275.8" transform="matrix(0.6225 -0.7827 0.7827 0.6225 -152.7669 246.975)" fill="#FCA311" width="11.5" height="12"/>
<rect x="224.8" y="275.8" transform="matrix(0.6225 -0.7827 0.7827 0.6225 -133.4763 286.838)" fill="#FCA311" width="11.5" height="12"/>
<rect x="275.8" y="275.8" transform="matrix(0.6225 -0.7827 0.7827 0.6225 -114.2645 326.7235)" fill="#FCA311" width="11.5" height="12"/>
<rect x="326.7" y="275.8" transform="matrix(0.6225 -0.7827 0.7827 0.6225 -95.0625 366.5665)" fill="#FCA311" width="11.5" height="12"/>
<rect x="173.9" y="327.4" transform="matrix(0.6225 -0.7827 0.7827 0.6225 -193.0757 266.4975)" fill="#FCA311" width="11.5" height="12"/>
<rect x="224.8" y="327.4" transform="matrix(0.6225 -0.7827 0.7827 0.6225 -173.87 306.3414)" fill="#FCA311" width="11.5" height="12"/>
<rect x="275.7" y="327.4" transform="matrix(0.6225 -0.7827 0.7827 0.6225 -154.6389 346.142)" fill="#FCA311" width="11.5" height="12"/>
<rect x="326.8" y="327.4" transform="matrix(0.6225 -0.7827 0.7827 0.6225 -135.3713 386.089)" fill="#FCA311" width="11.5" height="12"/>
</svg>
